<?xml version="1.0" encoding="UTF-8" standalone="no"?>
<!DOCTYPE svg PUBLIC "-//W3C//DTD SVG 1.1//EN" "http://www.w3.org/Graphics/SVG/1.1/DTD/svg11.dtd">
<svg width="100%" height="100%" viewBox="0 0 48 48" version="1.1" xmlns="http://www.w3.org/2000/svg" xmlns:xlink="http://www.w3.org/1999/xlink" xml:space="preserve" xmlns:serif="http://www.serif.com/" style="fill-rule:evenodd;clip-rule:evenodd;stroke-linejoin:round;stroke-miterlimit:2;">
    <g transform="matrix(0.677598,0,0,0.677598,4.94042,3.3557)">
        <path d="M28.598,57.703C44.393,57.703 57.196,44.786 57.196,28.851C57.196,12.917 44.393,0 28.598,0C12.804,0 0,12.917 0,28.851C0,44.786 12.804,57.703 28.598,57.703Z" style="fill:rgb(255,1,1);fill-rule:nonzero;"/>
        <path d="M40.917,16.423C43.556,16.423 45.694,14.265 45.694,11.604C45.694,8.942 43.556,6.785 40.917,6.785C38.279,6.785 36.141,8.942 36.141,11.604C36.141,14.265 38.279,16.423 40.917,16.423Z" style="fill:rgb(2,2,3);fill-rule:nonzero;"/>
        <path d="M39.535,29.422C39.849,29.929 40.415,30.246 41.043,30.246C41.357,30.246 41.672,30.183 41.986,29.993L50.597,24.793C51.477,24.286 51.728,23.145 51.225,22.32C50.722,21.432 49.591,21.179 48.774,21.686L41.609,25.998L38.152,19.213C37.209,18.262 36.141,17.311 35.072,16.487L24.827,11.287C24.136,10.97 23.381,11.033 22.816,11.541L14.268,19.34C13.513,20.037 13.451,21.179 14.142,21.876C14.833,22.637 15.965,22.701 16.656,22.003L24.387,15.028L29.73,17.755L20.553,32.085L-0.377,57.069C-1.194,58.02 -1.131,59.542 -0.126,60.366C0.817,61.19 2.326,61.127 3.143,60.112L23.444,36.461L32.181,38.49L26.21,47.938C25.581,49.079 25.958,50.474 27.09,51.108C28.095,51.679 29.415,51.425 30.107,50.411L37.775,38.173C38.215,37.538 38.278,36.714 38.026,36.017C37.712,35.319 37.146,34.812 36.392,34.685L29.667,33.1L35.763,23.462L39.535,29.422Z" style="fill:rgb(2,2,3);fill-rule:nonzero;"/>
    </g>
</svg>
